<?xml version="1.0" standalone="no"?>
<!DOCTYPE svg PUBLIC "-//W3C//DTD SVG 20010904//EN"
 "http://www.w3.org/TR/2001/REC-SVG-20010904/DTD/svg10.dtd">
<svg version="1.0" xmlns="http://www.w3.org/2000/svg"
 width="156.000000pt" height="205.000000pt" viewBox="0 0 156.000000 205.000000"
 preserveAspectRatio="xMidYMid meet">

<g transform="translate(0.000000,205.000000) scale(0.100000,-0.100000)"
fill="#000000" stroke="none">
<path d="M0 1025 l0 -1025 778 2 777 3 3 1023 2 1022 -780 0 -780 0 0 -1025z
m723 972 c-5 -9 -4 -9 8 0 10 8 121 12 406 12 l391 1 6 -242 c4 -134 6 -308 4
-388 -2 -80 1 -416 6 -746 l9 -602 -114 -6 c-63 -3 -397 -7 -744 -8 l-630 -3
-3 23 c-3 20 1 22 44 22 57 0 73 17 74 77 0 76 81 155 231 226 82 38 88 50 42
78 -23 15 -56 24 -91 26 -29 2 -71 12 -92 23 -54 28 -141 49 -173 43 -25 -5
-27 -3 -27 26 0 17 4 31 8 31 14 0 194 -66 256 -94 73 -33 86 -27 17 8 -28 15
-51 28 -51 31 0 9 147 -63 208 -103 l62 -40 -50 -11 c-99 -21 -156 -56 -257
-157 -53 -52 -70 -90 -35 -77 15 6 16 5 2 -13 -8 -10 -23 -29 -34 -42 -32 -37
-6 -25 29 14 36 39 51 33 47 -18 l-2 -28 70 0 70 0 0 30 c0 17 5 30 11 30 6 0
9 -12 7 -27 -2 -20 2 -29 15 -31 12 -2 17 3 17 17 0 28 20 27 21 -1 1 -21 2
-21 6 -3 17 73 25 95 37 95 20 0 40 -27 26 -35 -5 -3 -10 1 -10 9 0 21 -16 21
-24 0 -10 -25 -7 -84 4 -84 6 0 10 12 11 28 l1 27 8 -25 c7 -24 7 -24 18 10
l10 35 2 -40 c1 -37 2 -38 11 -15 9 25 10 26 122 25 146 -1 159 2 193 35 68
66 93 127 64 156 -16 16 1 83 26 107 24 22 31 61 15 85 -13 21 19 100 49 122
23 16 28 27 27 57 0 21 -4 40 -9 43 -4 4 -1 15 7 27 10 14 22 19 39 16 21 -4
28 0 36 22 5 14 10 39 10 55 0 22 7 33 30 45 33 17 66 20 75 5 3 -5 11 -10 17
-10 11 0 4 40 -15 80 -16 32 -11 57 14 65 10 4 19 9 19 13 0 15 -16 30 -30 29
-8 -1 -16 3 -18 8 -5 15 64 28 85 16 16 -9 16 -10 -5 -11 -19 0 -21 -4 -16
-24 3 -13 1 -27 -5 -31 -6 -3 -9 -11 -6 -16 4 -5 -1 -9 -10 -9 -12 0 -15 -5
-11 -16 3 -9 6 -22 6 -30 0 -9 4 -13 8 -10 4 2 9 -18 9 -45 2 -48 2 -49 -28
-49 -18 0 -28 4 -24 10 3 6 0 10 -9 10 -8 0 -20 2 -28 5 -7 3 -18 -6 -24 -20
-8 -16 -8 -25 -2 -27 6 -2 3 -12 -6 -21 -10 -9 -13 -17 -7 -17 6 0 11 -4 11
-10 0 -5 -6 -7 -14 -4 -8 3 -16 -3 -19 -15 -3 -15 -14 -21 -34 -22 l-28 -2 28
-4 c15 -2 27 -9 27 -14 0 -5 -8 -9 -17 -7 -14 2 -18 -4 -17 -27 1 -19 -5 -35
-17 -43 -11 -7 -19 -22 -19 -33 0 -13 -7 -19 -22 -20 -22 0 -22 -1 2 -11 l25
-11 -23 -4 c-12 -3 -20 -8 -17 -13 3 -5 12 -7 20 -3 8 3 15 0 15 -6 0 -6 -12
-11 -27 -11 -14 0 -24 -3 -21 -6 3 -3 25 -5 48 -6 23 0 37 -4 30 -8 -16 -10 5
-24 25 -16 9 3 15 0 15 -8 0 -19 21 -25 50 -14 20 7 22 11 10 18 -13 8 -12 10
3 10 27 0 22 -40 -5 -41 -16 0 -18 -2 -8 -6 8 -4 29 -16 45 -28 17 -12 35 -21
41 -18 6 2 14 -6 17 -17 4 -17 11 -20 29 -15 15 4 19 3 10 -3 -10 -7 -10 -11
2 -21 8 -7 19 -10 25 -7 5 4 22 1 36 -6 24 -11 25 -13 8 -19 -16 -7 -16 -8 0
-8 9 -1 17 -6 17 -12 0 -6 -9 -8 -20 -4 -20 6 -26 -6 -21 -43 2 -10 -3 -11
-17 -3 -13 7 -25 6 -43 -4 -13 -8 -41 -22 -61 -32 -21 -10 -38 -23 -38 -30 0
-7 -4 -13 -10 -13 -5 0 -10 7 -10 16 0 27 -20 4 -21 -24 l-1 -27 -8 25 c-8 24
-8 24 -9 3 -1 -28 -9 -29 -27 -6 -12 16 -13 15 -14 -14 0 -34 -19 -47 -21 -15
0 12 -3 11 -10 -6 -11 -28 -4 -43 16 -35 9 3 15 -1 15 -8 0 -9 3 -10 8 -3 8
12 53 14 46 2 -3 -4 0 -8 6 -8 6 0 13 7 17 16 6 16 7 16 18 0 12 -15 13 -15
19 1 6 15 8 15 17 3 8 -13 10 -13 18 0 9 12 11 12 17 -4 7 -17 7 -17 17 0 9
16 10 16 23 -1 8 -10 14 -14 14 -7 0 6 7 9 15 6 9 -4 15 0 15 7 0 12 2 12 9 0
6 -10 10 -10 16 -1 6 9 10 9 17 -1 8 -12 10 -12 15 0 5 11 7 11 15 0 7 -11 11
-11 15 -1 2 6 13 12 24 12 10 0 19 4 19 10 0 5 -6 7 -14 4 -8 -3 -17 -1 -21 5
-3 7 2 11 14 11 25 0 28 20 4 21 -15 0 -15 2 2 9 18 8 18 9 -5 10 l-25 2 25 8
c17 5 19 8 8 9 -10 1 -18 6 -18 12 0 6 7 9 15 6 8 -4 17 -2 20 3 4 6 -4 11
-17 11 -17 1 -18 3 -5 6 9 2 17 9 17 14 0 5 -8 9 -17 9 -15 0 -16 2 -3 10 13
9 13 10 0 11 -10 0 -8 3 5 9 17 7 17 9 3 9 -10 1 -18 6 -18 11 0 6 8 10 18 11
14 0 14 2 -3 9 -20 8 -20 8 -1 16 19 7 19 8 0 15 -18 7 -18 8 1 9 l20 1 -20 9
c-17 7 -17 9 -2 9 9 1 17 6 17 11 0 6 -8 10 -17 10 -15 0 -16 2 -3 10 13 9 13
11 0 20 -13 8 -12 10 3 10 9 0 17 5 17 10 0 6 -8 11 -17 11 -17 1 -17 2 0 6 9
2 17 13 17 24 0 11 -7 19 -17 19 -13 0 -15 2 -5 8 7 5 10 16 6 25 -4 11 -1 17
7 18 8 0 5 4 -6 9 -17 7 -17 9 -2 9 9 1 17 6 17 11 0 6 -8 11 -17 11 -17 1
-17 2 0 6 22 6 22 23 0 23 -15 0 -16 2 -3 10 13 9 13 11 0 21 -12 8 -10 9 7 4
18 -5 22 -3 17 9 -3 9 -13 16 -21 16 -13 0 -13 3 -3 15 9 11 9 15 1 15 -7 0
-9 5 -6 10 4 6 11 8 16 5 5 -4 9 -1 9 4 0 6 -8 12 -17 12 -17 1 -17 2 0 6 21
5 23 23 2 23 -21 0 -19 20 3 21 16 1 16 2 0 6 -10 2 -18 7 -18 10 0 3 8 12 18
19 16 13 16 13 -2 14 -20 0 -20 0 0 15 19 14 19 14 0 15 -20 0 -20 0 0 15 19
14 19 14 0 15 -20 0 -20 0 0 15 19 14 19 14 -1 15 -20 1 -20 1 -1 15 19 14 19
15 2 15 -15 0 -16 3 -6 15 7 8 9 15 4 15 -5 0 -2 5 6 10 11 7 7 10 -17 10 -18
0 -33 4 -33 9 0 6 15 12 33 14 31 4 31 4 -6 5 -46 2 -41 21 6 23 30 2 30 2 -8
9 -22 4 -33 8 -24 9 19 1 58 41 41 41 -19 0 -14 20 6 21 15 1 14 2 -2 6 -15 4
-16 7 -5 15 11 8 11 11 1 15 -10 4 -9 8 4 17 21 16 9 40 -16 33 -10 -2 -24 -1
-31 4 -10 6 -6 9 12 9 30 0 57 24 39 35 -5 3 -10 1 -10 -4 0 -20 -16 -11 -17
9 -1 12 5 20 15 21 15 1 14 2 -1 6 -18 5 -18 5 0 19 17 13 17 13 -2 14 l-20 1
20 9 c17 7 17 9 3 9 -10 1 -18 6 -18 11 0 6 8 11 18 11 16 1 16 2 0 6 -22 5
-24 23 -3 23 8 0 15 7 15 15 0 8 -7 15 -15 15 -21 0 -19 20 3 21 15 1 14 2 -2
6 -15 4 -16 7 -5 15 11 8 11 11 1 15 -10 4 -9 8 5 19 17 13 17 13 1 14 -21 0
-24 16 -5 23 9 4 8 8 -3 16 -11 8 -12 13 -3 19 12 8 12 36 0 48 -4 4 -2 13 4
21 8 9 8 13 0 13 -13 0 -10 42 4 53 7 5 7 10 0 15 -11 8 -13 42 -2 59 4 6 1
14 -5 17 -10 5 -10 7 0 12 10 5 10 9 0 22 -10 12 -10 16 0 19 6 3 9 10 5 16
-4 7 -7 32 -8 57 l0 45 -93 0 -93 0 2 -50 c3 -49 3 -50 -24 -47 -26 3 -27 1
-22 -25 4 -15 8 -33 10 -40 6 -20 -13 -25 -23 -7 -9 16 -10 16 -15 -2 -4 -10
-2 -35 2 -54 5 -19 9 -27 10 -16 1 13 7 17 20 13 13 -3 21 1 24 14 3 11 10 19
16 19 14 0 14 -17 1 -25 -10 -6 24 -45 39 -45 3 0 7 -12 7 -26 2 -18 -2 -24
-12 -20 -26 10 -40 -60 -20 -93 7 -11 3 -13 -18 -9 -22 4 -26 2 -26 -18 0 -19
-5 -24 -26 -24 -19 0 -25 -4 -21 -15 4 -8 3 -16 -1 -19 -6 -3 -7 -66 -2 -73 2
-2 4 -7 5 -13 1 -5 3 -13 4 -17 1 -5 7 3 12 16 7 18 12 21 23 12 9 -8 16 -8
20 -2 10 15 65 8 71 -8 3 -8 1 -18 -6 -21 -8 -6 -8 -9 0 -15 16 -9 44 2 36 15
-3 5 -1 10 4 10 6 0 11 -9 11 -20 0 -11 -6 -20 -12 -20 -8 0 -9 -3 -3 -8 6 -4
11 -18 13 -32 1 -14 11 -36 21 -50 18 -25 22 -75 7 -98 -5 -8 1 -12 21 -12 22
0 25 -2 13 -10 -8 -5 -25 -10 -38 -10 -13 0 -20 -4 -17 -10 3 -5 1 -10 -5 -10
-6 0 -8 -4 -5 -10 3 -5 2 -10 -4 -10 -19 0 -21 18 -6 53 22 53 5 117 -48 190
-21 27 -57 37 -57 16 0 -6 6 -9 14 -6 16 6 56 -48 74 -100 22 -65 -18 -132
-95 -158 -43 -15 -53 -48 -16 -53 l23 -3 -21 -28 c-18 -25 -19 -29 -4 -57 23
-44 20 -57 -12 -50 -44 10 -93 -25 -94 -66 -2 -57 -11 -73 -44 -73 -22 0 -33
-7 -45 -28 -10 -18 -11 -30 -5 -35 16 -11 15 -62 0 -62 -17 0 -58 -57 -50 -70
3 -5 -2 -21 -11 -36 -14 -21 -15 -30 -6 -45 17 -27 15 -43 -9 -73 -29 -37 -43
-100 -27 -125 10 -16 7 -29 -16 -76 -43 -84 -100 -104 -252 -90 -62 6 -81 12
-101 31 -41 41 -102 67 -144 61 -20 -3 -42 0 -47 5 -5 5 -26 10 -46 11 -20 1
-36 2 -36 4 0 1 18 15 40 29 52 35 81 30 220 -36 126 -60 189 -71 254 -46 74
28 81 42 70 140 -9 84 -4 113 31 166 5 8 8 23 7 32 -2 10 1 18 7 18 26 0 53
112 51 212 -1 45 3 61 19 77 11 11 18 27 15 34 -2 7 1 27 8 43 12 28 16 57 21
141 1 33 8 47 27 60 14 9 41 32 60 50 32 30 33 35 17 44 -9 5 -24 24 -33 40
-8 17 -18 28 -21 25 -3 -3 4 -21 16 -41 11 -20 21 -38 21 -40 0 -2 -15 -3 -32
-2 -25 2 -33 -2 -33 -15 0 -10 -6 -23 -14 -30 -11 -11 -13 -8 -9 20 3 22 1 32
-9 32 -7 0 -19 11 -25 25 -6 14 -15 25 -20 25 -5 0 -16 16 -24 35 -10 24 -21
35 -35 35 -13 0 -19 5 -16 13 2 6 -11 22 -29 34 -19 12 -34 18 -34 13 0 -6 4
-10 9 -10 6 0 16 -12 23 -27 7 -15 25 -34 40 -41 30 -14 72 -78 57 -87 -5 -4
-9 0 -10 7 0 7 -7 0 -14 -17 l-14 -30 -1 48 c0 35 -4 47 -15 47 -8 0 -15 6
-15 13 0 16 -34 49 -42 41 -3 -3 -27 11 -53 30 -25 20 -51 36 -58 36 -6 0 10
-15 35 -32 58 -42 138 -116 138 -128 0 -5 -5 -21 -10 -36 l-11 -27 -52 50
c-69 66 -95 83 -204 132 -117 53 -153 55 -194 13 -32 -33 -30 -45 3 -15 23 20
24 3 3 -38 -15 -29 -13 -49 5 -49 5 0 11 13 15 29 3 16 13 35 21 42 18 15 18
9 -1 -27 -13 -25 -13 -31 0 -49 8 -11 24 -40 35 -64 11 -24 23 -42 26 -39 3 4
-5 28 -19 55 -24 49 -24 92 1 101 14 4 21 -10 26 -56 2 -18 18 -61 35 -96 41
-80 49 -134 27 -181 -10 -20 -16 -41 -13 -48 5 -15 47 78 48 107 0 11 3 15 6
9 14 -37 117 7 186 80 15 16 27 25 27 19 0 -17 -41 -62 -73 -79 -26 -14 -28
-18 -14 -21 14 -3 15 -7 7 -17 -8 -10 -8 -15 0 -20 15 -9 61 23 67 46 3 10 14
20 24 20 11 1 24 3 29 4 6 1 15 3 21 4 7 0 9 13 7 31 -3 18 1 35 9 41 7 6 13
18 13 25 0 8 5 14 12 14 6 0 8 -3 5 -7 -4 -3 0 -17 8 -30 16 -24 8 -32 -13
-11 -21 21 -13 -5 9 -28 21 -22 25 -56 16 -129 -8 -64 -47 -161 -71 -177 -8
-6 -8 -10 1 -16 16 -10 28 -82 14 -82 -6 0 -10 3 -10 8 4 21 -2 43 -10 38 -10
-7 -2 -56 12 -73 6 -9 6 -13 -2 -13 -7 0 -18 -15 -26 -32 -11 -27 -15 -30 -20
-15 -4 10 -1 24 6 34 12 14 12 16 -1 11 -8 -2 -22 -18 -30 -34 -11 -22 -15
-25 -18 -12 -2 9 4 30 12 47 11 20 12 32 5 36 -6 4 -13 -2 -16 -14 -3 -11 -9
-18 -14 -15 -5 3 -6 -2 -3 -11 10 -24 -5 -65 -23 -65 -14 0 -14 2 2 20 18 19
17 20 -5 20 -22 0 -23 1 -5 20 10 11 13 20 7 20 -17 0 -15 16 3 34 11 10 12
17 4 22 -13 8 -29 -13 -29 -38 0 -23 -9 -23 -25 -1 -12 15 -15 14 -39 -13 -20
-22 -24 -24 -20 -9 6 16 4 18 -6 8 -11 -10 -16 -9 -25 3 -10 14 -15 11 -36
-20 -13 -20 -28 -36 -32 -36 -4 0 4 16 19 35 15 20 24 38 21 41 -6 7 -57 -59
-57 -74 0 -20 34 -13 48 8 19 30 32 24 32 -15 0 -32 -3 -35 -27 -35 -16 0 -39
3 -51 7 -24 6 -24 5 -9 70 2 7 30 35 63 62 70 59 134 122 175 174 51 62 18 41
-60 -39 -41 -41 -93 -88 -116 -104 -23 -16 -50 -41 -60 -56 -13 -21 -19 -24
-26 -13 -8 12 -10 12 -18 -1 -6 -8 -13 -11 -17 -7 -12 12 -34 -14 -35 -42 0
-26 0 -26 -11 -3 -10 20 -28 31 -28 16 0 -16 23 -44 35 -44 32 0 13 -26 -27
-37 -45 -12 -62 -7 -110 36 -31 28 -36 56 -12 82 14 16 14 20 0 48 -25 47 -18
59 12 25 15 -18 40 -35 55 -38 17 -4 31 -16 37 -31 11 -28 20 -33 20 -11 0 8
-12 29 -27 47 -15 17 -28 37 -29 43 -1 6 -6 20 -10 31 -4 10 9 1 29 -22 20
-22 37 -47 37 -56 0 -18 16 -31 29 -23 10 7 -7 106 -21 124 -7 8 -7 12 0 12 6
0 14 -4 17 -10 3 -5 11 -10 18 -10 8 0 8 3 0 11 -9 9 -8 15 3 26 8 8 11 20 7
26 -5 8 -8 8 -11 -1 -2 -7 -8 -10 -13 -6 -5 3 -9 1 -9 -5 0 -13 -120 68 -127
85 -3 8 -11 14 -19 14 -8 0 -14 5 -14 11 0 5 -4 7 -10 4 -6 -3 -10 -1 -10 5 0
6 -13 25 -30 43 -16 18 -30 38 -30 45 0 6 -4 12 -10 12 -16 0 -12 -43 7 -70
10 -14 35 -43 58 -65 42 -42 67 -94 66 -134 -1 -13 7 -34 16 -45 18 -20 18
-20 -6 -5 -27 17 -28 19 -61 92 -16 34 -27 47 -37 43 -12 -5 -14 -1 -9 17 4
19 0 26 -20 36 -14 6 -30 8 -36 5 -7 -5 -8 -2 -3 6 6 10 4 12 -10 6 -15 -5
-16 -4 -5 9 11 13 10 18 -6 30 -10 8 -23 14 -29 14 -5 1 1 -8 15 -19 14 -11
21 -20 15 -21 -39 -6 -55 -5 -55 2 0 5 -6 9 -12 9 -15 0 -68 39 -54 40 5 0 29
-12 53 -26 25 -14 47 -24 49 -21 3 2 -20 17 -51 33 l-55 29 0 138 c0 90 4 137
11 137 5 0 8 -4 4 -10 -7 -11 88 -38 130 -36 17 0 32 6 34 11 4 12 -146 95
-171 95 -17 0 -18 -29 -20 -457 -1 -377 -3 -423 -8 -258 -4 110 -8 455 -9 767
l-1 568 197 2 c109 2 265 4 346 5 113 2 146 -1 140 -10z m622 -47 c-3 -5 -12
-7 -20 -3 -21 7 -19 13 6 13 11 0 18 -4 14 -10z m-8 -26 c-3 -3 -12 -4 -19 -1
-8 3 -5 6 6 6 11 1 17 -2 13 -5z m43 -4 c0 -5 -2 -10 -4 -10 -3 0 -8 5 -11 10
-3 6 -1 10 4 10 6 0 11 -4 11 -10z m70 6 c0 -3 -4 -8 -10 -11 -5 -3 -10 -1
-10 4 0 6 5 11 10 11 6 0 10 -2 10 -4z m-110 -30 c0 -11 -19 -15 -25 -6 -3 5
1 10 9 10 9 0 16 -2 16 -4z m40 -6 c0 -5 -4 -10 -10 -10 -5 0 -10 5 -10 10 0
6 5 10 10 10 6 0 10 -4 10 -10z m-80 -30 c0 -5 -7 -10 -16 -10 -8 0 -12 5 -9
10 3 6 10 10 16 10 5 0 9 -4 9 -10z m40 0 c0 -5 -7 -10 -16 -10 -8 0 -12 5 -9
10 3 6 10 10 16 10 5 0 9 -4 9 -10z m40 0 c0 -5 -4 -10 -10 -10 -5 0 -10 5
-10 10 0 6 5 10 10 10 6 0 10 -4 10 -10z m35 1 c3 -5 1 -12 -5 -16 -5 -3 -10
1 -10 9 0 18 6 21 15 7z m35 -1 c0 -5 -4 -10 -10 -10 -5 0 -10 5 -10 10 0 6 5
10 10 10 6 0 10 -4 10 -10z m-150 -38 c0 -13 -12 -22 -22 -16 -10 6 -1 24 13
24 5 0 9 -4 9 -8z m40 -2 c0 -5 -7 -10 -16 -10 -8 0 -12 5 -9 10 3 6 10 10 16
10 5 0 9 -4 9 -10z m40 0 c0 -5 -4 -10 -10 -10 -5 0 -10 5 -10 10 0 6 5 10 10
10 6 0 10 -4 10 -10z m40 6 c0 -3 -4 -8 -10 -11 -5 -3 -10 -1 -10 4 0 6 5 11
10 11 6 0 10 -2 10 -4z m35 -6 c3 -5 2 -10 -4 -10 -5 0 -13 5 -16 10 -3 6 -2
10 4 10 5 0 13 -4 16 -10z m-40 -29 c3 -5 1 -12 -5 -16 -5 -3 -10 1 -10 9 0
18 6 21 15 7z m40 0 c3 -5 1 -12 -5 -16 -5 -3 -10 1 -10 9 0 18 6 21 15 7z
m-115 -11 c0 -5 -4 -10 -10 -10 -5 0 -10 5 -10 10 0 6 5 10 10 10 6 0 10 -4
10 -10z m40 6 c0 -3 -4 -8 -10 -11 -5 -3 -10 -1 -10 4 0 6 5 11 10 11 6 0 10
-2 10 -4z m-40 -36 c0 -5 -5 -10 -11 -10 -5 0 -7 5 -4 10 3 6 8 10 11 10 2 0
4 -4 4 -10z m40 0 c0 -5 -5 -10 -11 -10 -5 0 -7 5 -4 10 3 6 8 10 11 10 2 0 4
-4 4 -10z m35 0 c3 -5 1 -10 -4 -10 -6 0 -11 5 -11 10 0 6 2 10 4 10 3 0 8 -4
11 -10z m-35 -34 c0 -3 -4 -8 -10 -11 -5 -3 -10 -1 -10 4 0 6 5 11 10 11 6 0
10 -2 10 -4z m0 -36 c0 -5 -4 -10 -10 -10 -5 0 -10 5 -10 10 0 6 5 10 10 10 6
0 10 -4 10 -10z m40 0 c0 -5 -2 -10 -4 -10 -3 0 -8 5 -11 10 -3 6 -1 10 4 10
6 0 11 -4 11 -10z m40 6 c0 -3 -4 -8 -10 -11 -5 -3 -10 -1 -10 4 0 6 5 11 10
11 6 0 10 -2 10 -4z m-120 -36 c0 -5 -5 -10 -11 -10 -5 0 -7 5 -4 10 3 6 8 10
11 10 2 0 4 -4 4 -10z m40 0 c0 -5 -4 -10 -10 -10 -5 0 -10 5 -10 10 0 6 5 10
10 10 6 0 10 -4 10 -10z m40 -5 c0 -8 -4 -15 -10 -15 -5 0 -10 7 -10 15 0 8 5
15 10 15 6 0 10 -7 10 -15z m35 6 c3 -5 1 -12 -5 -16 -5 -3 -10 1 -10 9 0 18
6 21 15 7z m-115 -41 c0 -5 -4 -10 -10 -10 -5 0 -10 5 -10 10 0 6 5 10 10 10
6 0 10 -4 10 -10z m40 0 c0 -5 -4 -10 -10 -10 -5 0 -10 5 -10 10 0 6 5 10 10
10 6 0 10 -4 10 -10z m40 0 c0 -5 -4 -10 -10 -10 -5 0 -10 5 -10 10 0 6 5 10
10 10 6 0 10 -4 10 -10z m-80 -30 c0 -5 -5 -10 -11 -10 -5 0 -7 5 -4 10 3 6 8
10 11 10 2 0 4 -4 4 -10z m50 0 c0 -5 -7 -10 -15 -10 -8 0 -15 5 -15 10 0 6 7
10 15 10 8 0 15 -4 15 -10z m30 0 c0 -5 -4 -10 -10 -10 -5 0 -10 5 -10 10 0 6
5 10 10 10 6 0 10 -4 10 -10z m40 6 c0 -3 -4 -8 -10 -11 -5 -3 -10 -1 -10 4 0
6 5 11 10 11 6 0 10 -2 10 -4z m-76 -47 c-3 -5 -10 -7 -15 -3 -5 3 -7 10 -3
15 3 5 10 7 15 3 5 -3 7 -10 3 -15z m40 0 c-3 -5 -10 -7 -15 -3 -5 3 -7 10 -3
15 3 5 10 7 15 3 5 -3 7 -10 3 -15z m36 12 c0 -6 -4 -13 -10 -16 -5 -3 -10 1
-10 9 0 9 5 16 10 16 6 0 10 -4 10 -9z m-150 -25 c0 -27 -14 -41 -31 -30 -7 4
-7 10 -1 16 6 6 8 17 5 24 -3 8 1 14 11 14 10 0 16 -9 16 -24z m40 20 c0 -11
-19 -15 -25 -6 -3 5 1 10 9 10 9 0 16 -2 16 -4z m-99 -49 c-13 -13 -26 -3 -16
12 3 6 11 8 17 5 6 -4 6 -10 -1 -17z m89 13 c0 -5 -5 -10 -11 -10 -5 0 -7 5
-4 10 3 6 8 10 11 10 2 0 4 -4 4 -10z m84 2 c3 -4 -11 -9 -30 -9 -19 -1 -34 3
-34 8 0 11 57 12 64 1z m-169 -42 c-3 -5 -10 -10 -16 -10 -5 0 -9 5 -9 10 0 6
7 10 16 10 8 0 12 -4 9 -10z m42 4 c-3 -3 -12 -4 -19 -1 -8 3 -5 6 6 6 11 1
17 -2 13 -5z m90 0 c-3 -3 -12 -4 -19 -1 -8 3 -5 6 6 6 11 1 17 -2 13 -5z m3
-24 c0 -5 -5 -10 -11 -10 -5 0 -7 5 -4 10 3 6 8 10 11 10 2 0 4 -4 4 -10z
m-133 -6 c-3 -3 -12 -4 -19 -1 -8 3 -5 6 6 6 11 1 17 -2 13 -5z m40 0 c-3 -3
-12 -4 -19 -1 -8 3 -5 6 6 6 11 1 17 -2 13 -5z m50 0 c-3 -3 -12 -4 -19 -1 -8
3 -5 6 6 6 11 1 17 -2 13 -5z m70 -71 c-3 -10 -5 -4 -5 12 0 17 2 24 5 18 2
-7 2 -21 0 -30z m-1307 -19 l25 -15 -25 7 c-14 3 -29 10 -34 15 -16 14 6 10
34 -7z m15 -52 c-3 -3 -11 0 -18 7 -9 10 -8 11 6 5 10 -3 15 -9 12 -12z m55
-12 c18 -12 2 -12 -25 0 -13 6 -15 9 -5 9 8 0 22 -4 30 -9z m750 -184 c0 -2
-8 -10 -17 -17 -16 -13 -17 -12 -4 4 13 16 21 21 21 13z m500 0 c0 -3 -4 -8
-10 -11 -5 -3 -10 -1 -10 4 0 6 5 11 10 11 6 0 10 -2 10 -4z m-565 -46 c3 -5
1 -10 -4 -10 -6 0 -11 5 -11 10 0 6 2 10 4 10 3 0 8 -4 11 -10z m525 -40 c0
-5 -4 -10 -10 -10 -5 0 -10 5 -10 10 0 6 5 10 10 10 6 0 10 -4 10 -10z m80
-24 c0 -11 -19 -15 -25 -6 -3 5 1 10 9 10 9 0 16 -2 16 -4z m-1370 -16 c13 -9
13 -10 0 -10 -13 0 -13 -1 0 -10 19 -12 33 -13 25 0 -3 5 17 0 45 -12 28 -12
46 -24 41 -28 -6 -3 5 -14 24 -23 19 -9 35 -22 35 -29 0 -7 14 -48 32 -91 24
-59 29 -80 20 -89 -9 -9 -16 -2 -29 28 -16 37 -19 44 -22 69 -1 6 -6 3 -11 -5
-8 -13 -10 -12 -10 3 0 10 -5 15 -10 12 -6 -3 -10 5 -10 19 0 14 -4 28 -10 31
-15 10 -12 -42 5 -75 8 -16 24 -34 36 -40 13 -8 18 -17 14 -30 -3 -10 1 -25
10 -33 9 -10 11 -18 5 -22 -5 -3 -10 -15 -10 -27 0 -18 2 -19 16 -7 14 11 18
10 27 -6 18 -33 59 -65 83 -65 13 0 24 -4 24 -10 0 -6 20 -8 47 -5 43 4 65 18
75 46 2 5 20 4 41 -2 20 -5 42 -7 47 -4 16 10 11 -33 -6 -60 -9 -14 -12 -25
-8 -25 11 0 37 38 44 63 3 10 10 18 15 17 14 -1 6 -43 -11 -56 -15 -12 -20
-74 -5 -74 5 0 11 12 13 27 4 37 28 43 28 6 l0 -28 21 25 20 25 -6 -32 c-6
-28 -4 -32 10 -27 8 4 22 18 30 33 14 25 14 24 15 -33 0 -51 2 -57 15 -46 9 7
13 21 10 31 -4 11 2 26 15 39 26 26 18 41 -8 17 -17 -16 -18 -15 -20 22 -2 27
2 40 13 44 11 5 15 -1 15 -21 l0 -27 19 24 c17 22 20 23 35 9 14 -14 14 -17 0
-29 -25 -21 -38 -51 -44 -106 -5 -40 -3 -53 7 -53 9 0 13 -14 13 -41 0 -31 -3
-40 -14 -36 -8 3 -22 -3 -31 -13 -20 -22 -98 -50 -134 -49 -25 1 -25 2 4 9
l30 7 -40 8 c-22 4 -47 9 -55 10 -8 2 -31 10 -50 19 l-35 15 60 -5 c49 -5 64
-3 74 10 8 9 9 16 3 16 -6 0 -18 3 -28 7 -12 5 -15 3 -9 -6 6 -10 0 -11 -26
-6 -19 4 -35 11 -37 16 -2 5 -17 9 -33 9 -18 0 -28 -4 -24 -10 4 -7 -8 -8 -37
-4 -85 13 -87 18 -24 47 32 15 76 32 99 38 l42 11 -31 27 c-17 14 -43 35 -57
46 l-27 20 37 18 c31 15 35 16 23 2 -24 -28 1 -31 26 -2 41 48 23 89 -20 43
-13 -14 -28 -26 -35 -26 -6 0 -11 -5 -11 -11 0 -5 -4 -8 -9 -4 -5 3 -13 0 -17
-6 -3 -6 -9 -7 -13 -2 -7 10 -172 87 -231 108 -85 30 -98 41 -102 90 -4 53 8
60 18 10 6 -34 20 -53 30 -42 3 3 -2 31 -11 62 -10 33 -14 70 -11 88 4 18 7
38 8 45 1 7 9 10 22 7 21 -6 21 -6 2 9 -11 9 -24 16 -29 16 -4 0 -6 4 -2 9 3
6 -3 15 -12 21 -16 10 -15 10 4 5 18 -5 22 -3 17 9 -6 17 -32 29 -45 20 -15
-9 -10 -44 6 -44 8 0 15 -5 15 -11 0 -6 -9 -8 -20 -4 -24 8 -25 1 -5 -55 17
-49 19 -80 5 -80 -5 0 -10 7 -10 15 0 8 -4 15 -9 15 -6 0 -6 -12 1 -30 6 -18
7 -46 2 -68 l-7 -37 -8 45 c-5 25 -13 46 -19 48 -12 4 -14 252 -2 252 4 0 14
-5 22 -10z m1327 -16 c-3 -3 -12 -4 -19 -1 -8 3 -5 6 6 6 11 1 17 -2 13 -5z
m40 0 c-3 -3 -12 -4 -19 -1 -8 3 -5 6 6 6 11 1 17 -2 13 -5z m-122 -24 c3 -5
1 -10 -4 -10 -6 0 -11 5 -11 10 0 6 2 10 4 10 3 0 8 -4 11 -10z m40 0 c3 -5 1
-10 -4 -10 -6 0 -11 5 -11 10 0 6 2 10 4 10 3 0 8 -4 11 -10z m40 0 c3 -5 1
-10 -4 -10 -6 0 -11 5 -11 10 0 6 2 10 4 10 3 0 8 -4 11 -10z m40 -30 c3 -5
-1 -10 -10 -10 -9 0 -13 5 -10 10 3 6 8 10 10 10 2 0 7 -4 10 -10z m-115 -4
c0 -3 -4 -8 -10 -11 -5 -3 -10 -1 -10 4 0 6 5 11 10 11 6 0 10 -2 10 -4z m37
-2 c-3 -3 -12 -4 -19 -1 -8 3 -5 6 6 6 11 1 17 -2 13 -5z m38 -24 c3 -5 1 -10
-4 -10 -6 0 -11 5 -11 10 0 6 2 10 4 10 3 0 8 -4 11 -10z m40 0 c3 -5 -1 -10
-10 -10 -9 0 -13 5 -10 10 3 6 8 10 10 10 2 0 7 -4 10 -10z m-78 -6 c-3 -3
-12 -4 -19 -1 -8 3 -5 6 6 6 11 1 17 -2 13 -5z m-147 -28 c0 -11 -19 -15 -25
-6 -3 5 1 10 9 10 9 0 16 -2 16 -4z m147 -2 c-3 -3 -12 -4 -19 -1 -8 3 -5 6 6
6 11 1 17 -2 13 -5z m-951 -29 c10 -8 15 -14 9 -14 -5 0 -19 6 -29 14 -11 8
-15 15 -10 15 6 0 19 -7 30 -15z m804 -5 c0 -5 -7 -10 -16 -10 -8 0 -12 5 -9
10 3 6 10 10 16 10 5 0 9 -4 9 -10z m30 0 c0 -5 -4 -10 -10 -10 -5 0 -10 5
-10 10 0 6 5 10 10 10 6 0 10 -4 10 -10z m40 0 c0 -5 -4 -10 -10 -10 -5 0 -10
5 -10 10 0 6 5 10 10 10 6 0 10 -4 10 -10z m40 0 c0 -5 -4 -10 -10 -10 -5 0
-10 5 -10 10 0 6 5 10 10 10 6 0 10 -4 10 -10z m40 0 c0 -5 -4 -10 -10 -10 -5
0 -10 5 -10 10 0 6 5 10 10 10 6 0 10 -4 10 -10z m40 0 c0 -5 -4 -10 -10 -10
-5 0 -10 5 -10 10 0 6 5 10 10 10 6 0 10 -4 10 -10z m-120 -30 c0 -5 -5 -10
-11 -10 -5 0 -7 5 -4 10 3 6 8 10 11 10 2 0 4 -4 4 -10z m40 0 c0 -5 -4 -10
-10 -10 -5 0 -10 5 -10 10 0 6 5 10 10 10 6 0 10 -4 10 -10z m40 0 c0 -5 -4
-10 -10 -10 -5 0 -10 5 -10 10 0 6 5 10 10 10 6 0 10 -4 10 -10z m40 0 c0 -5
-4 -10 -10 -10 -5 0 -10 5 -10 10 0 6 5 10 10 10 6 0 10 -4 10 -10z m-153 -6
c-3 -3 -12 -4 -19 -1 -8 3 -5 6 6 6 11 1 17 -2 13 -5z m38 -24 c3 -5 -1 -10
-10 -10 -9 0 -13 5 -10 10 3 6 8 10 10 10 2 0 7 -4 10 -10z m35 0 c0 -5 -5
-10 -11 -10 -5 0 -7 5 -4 10 3 6 8 10 11 10 2 0 4 -4 4 -10z m40 0 c0 -5 -5
-10 -11 -10 -5 0 -7 5 -4 10 3 6 8 10 11 10 2 0 4 -4 4 -10z m-200 -10 c0 -5
-4 -10 -10 -10 -5 0 -10 5 -10 10 0 6 5 10 10 10 6 0 10 -4 10 -10z m40 0 c0
-5 -4 -10 -10 -10 -5 0 -10 5 -10 10 0 6 5 10 10 10 6 0 10 -4 10 -10z m47 4
c-3 -3 -12 -4 -19 -1 -8 3 -5 6 6 6 11 1 17 -2 13 -5z m176 -1 c-7 -2 -21 -2
-30 0 -10 3 -4 5 12 5 17 0 24 -2 18 -5z m-138 -22 c3 -5 1 -12 -5 -16 -5 -3
-10 1 -10 9 0 18 6 21 15 7z m75 -7 c0 -8 -5 -12 -10 -9 -6 4 -8 11 -5 16 9
14 15 11 15 -7z m40 7 c0 -6 -4 -13 -10 -16 -5 -3 -10 1 -10 9 0 9 5 16 10 16
6 0 10 -4 10 -9z m-240 -11 c0 -5 -4 -10 -10 -10 -5 0 -10 5 -10 10 0 6 5 10
10 10 6 0 10 -4 10 -10z m40 0 c0 -5 -4 -10 -10 -10 -5 0 -10 5 -10 10 0 6 5
10 10 10 6 0 10 -4 10 -10z m50 0 c0 -5 -7 -10 -15 -10 -8 0 -15 5 -15 10 0 6
7 10 15 10 8 0 15 -4 15 -10z m-90 -30 c0 -5 -4 -10 -10 -10 -5 0 -10 5 -10
10 0 6 5 10 10 10 6 0 10 -4 10 -10z m40 0 c0 -5 -4 -10 -10 -10 -5 0 -10 5
-10 10 0 6 5 10 10 10 6 0 10 -4 10 -10z m45 0 c-3 -5 -10 -10 -16 -10 -5 0
-9 5 -9 10 0 6 7 10 16 10 8 0 12 -4 9 -10z m45 6 c0 -3 -4 -8 -10 -11 -5 -3
-10 -1 -10 4 0 6 5 11 10 11 6 0 10 -2 10 -4z m30 -6 c0 -5 -4 -10 -10 -10 -5
0 -10 5 -10 10 0 6 5 10 10 10 6 0 10 -4 10 -10z m80 0 c0 -5 -4 -10 -10 -10
-5 0 -10 5 -10 10 0 6 5 10 10 10 6 0 10 -4 10 -10z m40 6 c0 -3 -4 -8 -10
-11 -5 -3 -10 -1 -10 4 0 6 5 11 10 11 6 0 10 -2 10 -4z m-685 -58 c10 -24 20
-46 23 -50 7 -15 -30 -21 -39 -7 -7 12 -9 12 -9 0 0 -7 -6 -11 -14 -8 -11 5
-13 -1 -9 -27 6 -39 -11 -56 -27 -26 -7 13 -8 26 -1 37 5 11 5 23 -2 33 -8 14
-4 25 18 54 15 20 31 36 35 36 4 0 15 -19 25 -42z m-258 0 c-3 -7 -5 -2 -5 12
0 14 2 19 5 13 2 -7 2 -19 0 -25z m33 -2 c0 -19 -6 -36 -13 -39 -11 -4 -12 2
-3 34 5 21 11 39 13 39 2 0 3 -15 3 -34z m630 24 c0 -5 -4 -10 -10 -10 -5 0
-10 5 -10 10 0 6 5 10 10 10 6 0 10 -4 10 -10z m40 0 c0 -5 -4 -10 -10 -10 -5
0 -10 5 -10 10 0 6 5 10 10 10 6 0 10 -4 10 -10z m50 0 c0 -5 -7 -10 -15 -10
-8 0 -15 5 -15 10 0 6 7 10 15 10 8 0 15 -4 15 -10z m40 6 c0 -3 -4 -8 -10
-11 -5 -3 -10 -1 -10 4 0 6 5 11 10 11 6 0 10 -2 10 -4z m70 -6 c0 -5 -4 -10
-10 -10 -5 0 -10 5 -10 10 0 6 5 10 10 10 6 0 10 -4 10 -10z m-1103 -106 c-4
-5 -201 58 -211 66 -4 5 -6 13 -2 18 3 6 50 -9 111 -36 57 -25 103 -47 102
-48z m903 76 c0 -5 -5 -10 -11 -10 -5 0 -7 5 -4 10 3 6 8 10 11 10 2 0 4 -4 4
-10z m40 0 c0 -5 -4 -10 -10 -10 -5 0 -10 5 -10 10 0 6 5 10 10 10 6 0 10 -4
10 -10z m50 0 c0 -5 -7 -10 -15 -10 -8 0 -15 5 -15 10 0 6 7 10 15 10 8 0 15
-4 15 -10z m40 0 c0 -5 -4 -10 -10 -10 -5 0 -10 5 -10 10 0 6 5 10 10 10 6 0
10 -4 10 -10z m70 0 c0 -5 -4 -10 -10 -10 -5 0 -10 5 -10 10 0 6 5 10 10 10 6
0 10 -4 10 -10z m40 0 c0 -5 -4 -10 -10 -10 -5 0 -10 5 -10 10 0 6 5 10 10 10
6 0 10 -4 10 -10z m40 6 c0 -3 -4 -8 -10 -11 -5 -3 -10 -1 -10 4 0 6 5 11 10
11 6 0 10 -2 10 -4z m-350 -36 c0 -5 -4 -10 -10 -10 -5 0 -10 5 -10 10 0 6 5
10 10 10 6 0 10 -4 10 -10z m30 0 c0 -5 -5 -10 -11 -10 -5 0 -7 5 -4 10 3 6 8
10 11 10 2 0 4 -4 4 -10z m75 0 c3 -5 1 -10 -4 -10 -6 0 -11 5 -11 10 0 6 2
10 4 10 3 0 8 -4 11 -10z m51 -17 c-4 -24 -26 -29 -26 -5 0 10 3 22 6 25 11
10 22 -2 20 -20z m74 17 c0 -5 -5 -10 -11 -10 -5 0 -7 5 -4 10 3 6 8 10 11 10
2 0 4 -4 4 -10z m40 0 c0 -5 -4 -10 -10 -10 -5 0 -10 5 -10 10 0 6 5 10 10 10
6 0 10 -4 10 -10z m40 0 c0 -5 -2 -10 -4 -10 -3 0 -8 5 -11 10 -3 6 -1 10 4
10 6 0 11 -4 11 -10z m40 6 c0 -3 -4 -8 -10 -11 -5 -3 -10 -1 -10 4 0 6 5 11
10 11 6 0 10 -2 10 -4z m-570 -16 c0 -9 -31 -30 -44 -30 -12 0 -6 28 7 33 20
9 37 8 37 -3z m35 -10 c-3 -5 -11 -10 -16 -10 -6 0 -7 5 -4 10 3 6 11 10 16
10 6 0 7 -4 4 -10z m215 -10 c0 -5 -5 -10 -11 -10 -5 0 -7 5 -4 10 3 6 8 10
11 10 2 0 4 -4 4 -10z m40 0 c0 -5 -4 -10 -10 -10 -5 0 -10 5 -10 10 0 6 5 10
10 10 6 0 10 -4 10 -10z m40 0 c0 -5 -4 -10 -10 -10 -5 0 -10 5 -10 10 0 6 5
10 10 10 6 0 10 -4 10 -10z m85 0 c3 -5 1 -10 -4 -10 -6 0 -11 5 -11 10 0 6 2
10 4 10 3 0 8 -4 11 -10z m75 6 c0 -3 -4 -8 -10 -11 -5 -3 -10 -1 -10 4 0 6 5
11 10 11 6 0 10 -2 10 -4z m-273 -26 c1 -11 -2 -20 -8 -20 -5 0 -9 9 -9 20 0
11 4 20 8 20 4 0 8 -9 9 -20z m-334 -23 c-2 -44 -3 -47 -13 -47 -5 0 -10 18
-10 41 0 27 4 39 12 37 7 -3 12 -16 11 -31z m407 13 c0 -5 -4 -10 -10 -10 -5
0 -10 5 -10 10 0 6 5 10 10 10 6 0 10 -4 10 -10z m40 6 c0 -3 -4 -8 -10 -11
-5 -3 -10 -1 -10 4 0 6 5 11 10 11 6 0 10 -2 10 -4z m36 -33 c-11 -11 -19 6
-11 24 8 17 8 17 12 0 3 -10 2 -21 -1 -24z m-39 1 c-3 -3 -12 -4 -19 -1 -8 3
-5 6 6 6 11 1 17 -2 13 -5z m83 -59 c0 -14 -4 -25 -8 -25 -7 0 -8 31 -3 48 4
11 11 -3 11 -23z m40 15 c0 -5 -5 -10 -11 -10 -5 0 -7 5 -4 10 3 6 8 10 11 10
2 0 4 -4 4 -10z m-1220 -30 c12 -8 12 -10 -5 -9 -11 0 -29 4 -40 9 -18 8 -18
9 5 9 14 0 32 -4 40 -9z m1220 0 c0 -5 -4 -10 -10 -10 -5 0 -10 5 -10 10 0 6
5 10 10 10 6 0 10 -4 10 -10z m-1240 -57 c0 -8 5 -11 13 -7 9 5 9 4 0 -6 -10
-11 -16 -10 -33 5 -26 23 -26 35 0 28 11 -3 20 -12 20 -20z m151 -9 c23 -14
39 -28 36 -30 -3 -3 -24 8 -48 25 -51 38 -44 41 12 5z m1169 6 c0 -5 -4 -10
-10 -10 -5 0 -10 5 -10 10 0 6 5 10 10 10 6 0 10 -4 10 -10z m-1250 -8 c0 -5
-7 -17 -16 -28 -8 -10 -14 -14 -11 -9 2 6 7 18 10 28 7 17 17 23 17 9z m60
-42 c0 -5 -5 -10 -11 -10 -5 0 -7 5 -4 10 3 6 8 10 11 10 2 0 4 -4 4 -10z
m1220 -30 c0 -5 -4 -10 -10 -10 -5 0 -10 5 -10 10 0 6 5 10 10 10 6 0 10 -4
10 -10z m0 -60 c0 -11 -4 -20 -9 -20 -5 0 -7 9 -4 20 3 11 7 20 9 20 2 0 4 -9
4 -20z m-125 -10 c3 -5 1 -10 -4 -10 -6 0 -11 5 -11 10 0 6 2 10 4 10 3 0 8
-4 11 -10z m52 -6 c-3 -3 -12 -4 -19 -1 -8 3 -5 6 6 6 11 1 17 -2 13 -5z
m-1028 -20 c-7 -9 -21 -33 -31 -53 -15 -30 -17 -32 -16 -11 2 14 -2 31 -6 39
-6 9 -5 12 1 8 6 -4 22 2 34 13 29 24 36 25 18 4z m130 -3 c9 -6 10 -11 2 -15
-6 -4 -11 -3 -11 3 0 5 -8 12 -17 14 -13 3 -14 5 -3 6 8 0 21 -3 29 -8z m811
-1 c0 -5 -4 -10 -10 -10 -5 0 -10 5 -10 10 0 6 5 10 10 10 6 0 10 -4 10 -10z
m40 0 c0 -5 -2 -10 -4 -10 -3 0 -8 5 -11 10 -3 6 -1 10 4 10 6 0 11 -4 11 -10z
m47 4 c-3 -3 -12 -4 -19 -1 -8 3 -5 6 6 6 11 1 17 -2 13 -5z m-1097 -29 c14
-19 14 -19 -2 -6 -21 15 -24 2 -5 -19 6 -8 2 -6 -10 4 -17 14 -19 21 -10 31 7
7 12 12 12 11 1 0 7 -10 15 -21z m1103 -2 c-7 -2 -19 -2 -25 0 -7 3 -2 5 12 5
14 0 19 -2 13 -5z m-53 -23 c0 -5 -4 -10 -10 -10 -5 0 -10 5 -10 10 0 6 5 10
10 10 6 0 10 -4 10 -10z m50 0 c0 -5 -4 -10 -10 -10 -5 0 -10 5 -10 10 0 6 5
10 10 10 6 0 10 -4 10 -10z m-132 -7 c-10 -2 -26 -2 -35 0 -10 3 -2 5 17 5 19
0 27 -2 18 -5z m2 -23 c0 -5 -11 -10 -25 -10 -14 0 -25 5 -25 10 0 6 11 10 25
10 14 0 25 -4 25 -10z m40 0 c0 -5 -4 -10 -10 -10 -5 0 -10 5 -10 10 0 6 5 10
10 10 6 0 10 -4 10 -10z m40 0 c0 -5 -4 -10 -10 -10 -5 0 -10 5 -10 10 0 6 5
10 10 10 6 0 10 -4 10 -10z m50 0 c0 -5 -7 -10 -15 -10 -8 0 -15 5 -15 10 0 6
7 10 15 10 8 0 15 -4 15 -10z m70 0 c0 -5 -4 -10 -10 -10 -5 0 -10 5 -10 10 0
6 5 10 10 10 6 0 10 -4 10 -10z"/>
<path d="M1006 1991 c5 -6 24 -6 44 -1 l35 8 -44 1 c-28 1 -41 -3 -35 -8z"/>
<path d="M1250 1989 c0 -5 5 -7 10 -4 6 3 10 8 10 11 0 2 -4 4 -10 4 -5 0 -10
-5 -10 -11z"/>
<path d="M756 1970 c-10 -10 -15 -23 -11 -29 3 -6 0 -14 -8 -17 -9 -3 -13 -13
-9 -26 4 -16 1 -19 -19 -16 -19 2 -24 9 -24 33 0 20 -6 31 -17 33 -10 2 -15 9
-11 18 3 8 -1 14 -10 14 -10 0 -13 -8 -9 -25 2 -14 11 -25 19 -25 11 0 14 -7
10 -22 -8 -27 9 -48 37 -48 27 0 46 18 47 45 0 19 1 19 9 -3 5 -12 7 -29 3
-37 -6 -18 23 -55 43 -55 23 0 64 23 64 35 0 7 7 18 16 26 8 7 13 21 11 30 -5
19 11 29 46 29 l21 0 -22 -20 c-27 -26 -28 -50 -3 -82 12 -15 18 -33 15 -46
-5 -16 2 -24 28 -38 18 -10 38 -18 43 -18 24 -2 63 -40 85 -83 26 -52 45 -199
28 -220 -25 -30 19 -103 62 -103 13 0 15 -7 12 -31 -3 -17 -1 -34 4 -38 5 -3
14 -15 20 -26 15 -27 54 -32 71 -9 18 24 16 75 -3 102 -24 35 -33 26 -17 -19
12 -37 12 -43 -3 -60 -22 -25 -37 -24 -29 1 5 14 2 20 -10 20 -14 0 -15 7 -9
46 l7 46 -30 -6 c-40 -9 -58 12 -49 56 18 83 11 152 -22 219 -17 35 -37 71
-44 79 -27 32 -71 60 -94 60 -12 0 -26 5 -30 12 -5 8 -2 9 9 5 26 -10 20 12
-13 45 -16 16 -30 38 -30 48 0 19 27 47 37 37 9 -10 43 12 43 28 0 18 -20 31
-29 18 -3 -5 -25 -9 -48 -10 -48 -1 -73 -16 -73 -45 0 -10 -11 -30 -25 -44
-20 -20 -28 -23 -45 -14 -16 8 -18 15 -11 29 7 12 6 22 -1 29 -14 14 -11 17
21 27 16 5 21 4 17 -4 -12 -18 2 -12 23 11 11 11 18 26 14 31 -3 6 -1 7 5 3 6
-3 13 -2 17 4 4 6 -10 10 -35 10 -33 0 -43 -4 -47 -20 -3 -11 -9 -18 -13 -15
-5 3 -6 14 -3 25 7 25 -6 25 -31 0z m79 -20 c3 -5 1 -10 -4 -10 -6 0 -11 5
-11 10 0 6 2 10 4 10 3 0 8 -4 11 -10z"/>
<path d="M1073 1982 c-18 -2 -33 -8 -33 -13 0 -6 5 -7 12 -3 8 5 9 2 5 -9 -5
-13 -1 -17 19 -17 14 0 22 4 19 10 -3 6 -3 10 2 10 4 0 18 3 31 6 13 4 22 2
22 -5 0 -6 -9 -11 -20 -11 -11 0 -20 -4 -20 -10 0 -5 5 -10 10 -10 20 0 9 -15
-20 -28 -36 -16 -52 -60 -26 -74 9 -5 16 -15 16 -22 0 -21 35 -46 64 -46 25 0
27 2 21 30 -5 23 -3 30 9 30 8 0 20 9 26 20 9 17 7 22 -14 32 -14 6 -23 15
-20 19 3 5 2 28 -1 52 -7 47 -10 48 -102 39z m81 -107 c3 -8 13 -15 23 -15 14
0 12 -5 -11 -23 -25 -20 -27 -26 -17 -45 9 -18 9 -22 -2 -22 -18 0 -37 21 -37
42 0 9 -8 21 -17 27 -17 9 -16 11 1 30 22 25 51 27 60 6z"/>
<path d="M1190 1970 c0 -11 5 -20 10 -20 6 0 10 9 10 20 0 11 -4 20 -10 20 -5
0 -10 -9 -10 -20z"/>
<path d="M60 1970 c0 -5 5 -10 11 -10 5 0 7 5 4 10 -3 6 -8 10 -11 10 -2 0 -4
-4 -4 -10z"/>
<path d="M454 1964 c3 -9 6 -18 6 -20 0 -2 9 -4 19 -4 11 0 23 -4 26 -10 11
-18 44 -10 61 15 22 34 10 45 -15 14 -15 -18 -22 -21 -32 -12 -6 6 -18 9 -25
6 -8 -3 -17 2 -20 11 -3 9 -11 16 -16 16 -6 0 -7 -7 -4 -16z"/>
<path d="M1213 1954 c-9 -20 -9 -30 0 -45 15 -24 24 -24 37 0 7 14 7 27 -2 45
-14 32 -20 32 -35 0z m27 -24 c0 -5 -4 -10 -10 -10 -5 0 -10 5 -10 10 0 6 5
10 10 10 6 0 10 -4 10 -10z"/>
<path d="M1050 1920 c0 -5 5 -10 10 -10 6 0 10 5 10 10 0 6 -4 10 -10 10 -5 0
-10 -4 -10 -10z"/>
<path d="M982 1868 c6 -18 28 -21 28 -4 0 9 -7 16 -16 16 -9 0 -14 -5 -12 -12z"/>
<path d="M170 1780 c0 -5 5 -10 11 -10 5 0 7 5 4 10 -3 6 -8 10 -11 10 -2 0
-4 -4 -4 -10z"/>
<path d="M685 1780 c3 -5 11 -10 16 -10 6 0 7 5 4 10 -3 6 -11 10 -16 10 -6 0
-7 -4 -4 -10z"/>
<path d="M188 1743 c7 -3 16 -2 19 1 4 3 -2 6 -13 5 -11 0 -14 -3 -6 -6z"/>
<path d="M1170 1740 c0 -5 7 -10 15 -10 8 0 15 5 15 10 0 6 -7 10 -15 10 -8 0
-15 -4 -15 -10z"/>
<path d="M780 1730 c0 -5 5 -10 10 -10 6 0 10 5 10 10 0 6 -4 10 -10 10 -5 0
-10 -4 -10 -10z"/>
<path d="M410 1708 c0 -6 11 -26 25 -44 18 -23 21 -34 12 -38 -8 -3 -5 -11 11
-22 25 -19 29 -34 8 -34 -8 0 -18 -4 -21 -10 -4 -6 8 -10 30 -10 33 0 36 2 30
23 -4 12 -13 27 -21 33 -8 7 -10 14 -4 20 7 7 0 20 -20 39 -16 16 -30 35 -30
42 0 7 -4 13 -10 13 -5 0 -10 -5 -10 -12z"/>
<path d="M830 1702 c83 -56 157 -151 188 -240 21 -59 32 -75 32 -45 0 29 -39
121 -72 170 -27 40 -87 94 -135 121 -33 18 -42 14 -13 -6z"/>
<path d="M1222 1713 c-29 -6 -46 -47 -37 -93 4 -19 7 -46 7 -60 0 -14 3 -19 5
-12 3 6 13 12 23 12 26 0 33 15 18 40 -11 18 -10 23 7 36 11 8 20 21 20 30 0
8 7 19 15 24 13 9 13 11 0 20 -16 10 -19 10 -58 3z m33 -21 c-5 -4 -15 -16
-21 -26 -6 -11 -16 -22 -22 -24 -19 -6 -14 36 6 47 20 12 52 15 37 3z"/>
<path d="M175 1700 c11 -5 34 -8 50 -8 29 0 29 0 5 8 -14 4 -36 8 -50 8 -23 1
-23 0 -5 -8z"/>
<path d="M163 1643 c4 -3 53 -24 109 -45 56 -21 106 -42 110 -46 4 -4 1 -17
-7 -29 l-15 -22 -70 40 c-75 42 -80 44 -80 29 0 -5 32 -26 70 -45 43 -21 74
-45 80 -58 6 -16 9 -17 9 -5 1 12 7 15 24 11 21 -5 21 -5 4 9 -21 16 -14 44
14 53 20 7 26 25 8 25 -6 0 -62 20 -123 45 -105 42 -149 55 -133 38z"/>
<path d="M867 1609 c7 -7 15 -10 18 -7 3 3 -2 9 -12 12 -14 6 -15 5 -6 -5z"/>
<path d="M915 1561 c17 -16 32 -27 34 -25 7 6 -41 54 -53 54 -6 0 3 -13 19
-29z"/>
<path d="M680 1519 c0 -5 4 -9 9 -9 5 0 17 -3 27 -7 11 -4 15 -3 11 4 -9 14
-47 24 -47 12z"/>
<path d="M956 1505 c4 -8 15 -32 25 -52 10 -20 19 -47 19 -59 0 -24 -25 -40
-36 -22 -4 7 -3 8 4 4 7 -4 12 -3 12 2 0 14 -45 52 -61 52 -9 0 -5 -8 11 -20
14 -10 21 -22 17 -26 -4 -4 7 -23 25 -42 18 -19 27 -32 21 -28 -24 13 -13 -9
22 -46 41 -44 55 -48 55 -14 0 13 5 26 10 28 6 2 3 25 -10 58 -16 43 -19 48
-17 23 2 -18 0 -33 -5 -33 -16 0 -23 5 -20 14 6 19 -19 108 -40 141 -23 35
-42 47 -32 20z"/>
<path d="M650 1500 c8 -5 24 -10 35 -11 20 0 20 0 0 -8 -17 -7 -14 -10 20 -21
22 -7 60 -26 84 -42 24 -16 46 -27 48 -24 10 9 -64 68 -115 92 -53 24 -103 34
-72 14z"/>
<path d="M223 1444 c71 -30 138 -54 150 -52 25 3 31 38 9 46 -11 3 -12 0 -3
-17 7 -11 10 -21 7 -21 -13 0 -157 55 -198 76 -26 13 -58 24 -70 24 -13 0 35
-25 105 -56z"/>
<path d="M241 1484 c15 -18 109 -68 115 -61 5 4 -112 77 -123 77 -3 0 0 -7 8
-16z"/>
<path d="M120 1463 c0 -5 24 -18 53 -30 28 -12 78 -33 110 -47 31 -14 57 -22
57 -17 0 7 -200 101 -215 101 -3 0 -5 -3 -5 -7z"/>
<path d="M170 1402 c0 -10 118 -67 125 -61 2 3 -25 19 -60 37 -36 17 -65 28
-65 24z"/>
<path d="M110 1396 c0 -8 162 -98 166 -93 3 3 -29 26 -71 51 -69 42 -95 53
-95 42z"/>
<path d="M1263 1393 c9 -2 23 -2 30 0 6 3 -1 5 -18 5 -16 0 -22 -2 -12 -5z"/>
<path d="M410 1345 c-13 -14 -21 -27 -18 -30 2 -3 15 6 28 20 13 14 21 27 18
30 -2 3 -15 -6 -28 -20z"/>
<path d="M810 1366 c0 -3 15 -15 33 -27 l32 -23 -24 27 c-22 24 -41 35 -41 23z"/>
<path d="M422 1276 c-15 -33 -11 -44 7 -22 7 8 11 23 9 32 -2 14 -6 11 -16
-10z"/>
<path d="M84 1271 c3 -5 23 -12 43 -15 21 -4 47 -10 58 -13 13 -3 17 -2 10 5
-5 5 -31 14 -57 21 -56 13 -61 14 -54 2z"/>
<path d="M120 1225 c7 -9 28 -15 49 -14 l36 1 -35 13 c-50 19 -66 19 -50 0z"/>
<path d="M340 1229 c0 -5 5 -7 10 -4 6 3 10 8 10 11 0 2 -4 4 -10 4 -5 0 -10
-5 -10 -11z"/>
<path d="M400 1210 c0 -9 39 -25 46 -18 2 3 -7 10 -21 16 -14 6 -25 7 -25 2z"/>
<path d="M162 1180 c14 -21 37 -34 47 -25 3 3 -1 10 -9 15 -13 9 -13 10 0 11
10 0 8 3 -5 9 -36 16 -47 12 -33 -10z"/>
<path d="M383 1177 c4 -10 -4 -12 -27 -10 -26 3 -28 2 -10 -6 20 -9 72 -15
104 -12 11 1 9 7 -9 21 -27 23 -66 27 -58 7z m47 -7 c8 -5 11 -10 5 -10 -5 0
-17 5 -25 10 -8 5 -10 10 -5 10 6 0 17 -5 25 -10z"/>
<path d="M150 1130 c0 -5 5 -10 10 -10 6 0 10 5 10 10 0 6 -4 10 -10 10 -5 0
-10 -4 -10 -10z"/>
<path d="M233 1115 c0 -28 12 -33 21 -9 9 24 7 34 -8 34 -8 0 -13 -10 -13 -25z"/>
<path d="M323 1095 c-16 -17 -17 -35 -3 -35 6 0 10 7 10 15 0 8 5 15 10 15 6
0 10 5 10 10 0 14 -13 12 -27 -5z"/>
<path d="M140 1061 c0 -12 39 -35 46 -28 3 2 -7 12 -21 21 -14 9 -25 12 -25 7z"/>
<path d="M919 1022 c-23 -24 -41 -54 -48 -82 -16 -61 -30 -88 -67 -124 -55
-55 -107 -116 -98 -116 5 0 32 22 59 48 28 25 54 47 59 47 11 0 25 37 19 48
-2 4 2 7 10 7 7 0 20 12 27 28 8 15 30 44 49 65 19 20 31 37 27 37 -5 0 -3 7
4 15 17 20 0 19 -29 -2 -14 -9 -21 -11 -17 -5 4 7 25 21 47 32 21 11 39 22 39
24 0 2 -10 6 -22 9 -16 5 -31 -4 -59 -31z m11 -55 c0 -2 -12 -14 -27 -28 l-28
-24 24 28 c23 25 31 32 31 24z"/>
<path d="M755 1011 c-6 -11 9 -23 19 -14 9 9 7 23 -3 23 -6 0 -12 -4 -16 -9z"/>
<path d="M801 950 c-47 -40 -66 -50 -82 -45 -16 5 -20 3 -17 -6 3 -8 1 -22 -4
-33 -8 -15 -12 -16 -19 -5 -7 11 -13 9 -28 -11 -11 -14 -18 -26 -16 -28 7 -8
54 11 76 32 13 12 33 28 45 36 42 30 117 100 112 105 -3 3 -33 -17 -67 -45z"/>
<path d="M775 960 c-3 -5 1 -10 9 -10 9 0 16 5 16 10 0 6 -4 10 -9 10 -6 0
-13 -4 -16 -10z"/>
<path d="M740 940 c0 -5 5 -10 11 -10 5 0 7 5 4 10 -3 6 -8 10 -11 10 -2 0 -4
-4 -4 -10z"/>
<path d="M966 895 c-3 -8 -1 -15 4 -15 6 0 10 7 10 15 0 8 -2 15 -4 15 -2 0
-6 -7 -10 -15z"/>
<path d="M607 883 c-4 -3 -7 -13 -7 -21 0 -12 3 -12 15 -2 8 7 15 16 15 21 0
11 -14 12 -23 2z"/>
<path d="M600 776 c0 -13 -3 -33 -7 -43 -6 -16 -5 -16 10 -4 18 14 24 71 7 71
-5 0 -10 -11 -10 -24z"/>
<path d="M1075 460 c28 -16 64 -36 80 -45 53 -29 185 -119 185 -126 0 -4 -33
-17 -72 -28 -114 -34 -130 -42 -183 -96 -28 -27 -65 -61 -82 -75 l-32 -25 24
-12 c17 -7 25 -8 25 -1 0 6 16 28 35 49 19 22 35 43 35 47 0 16 100 63 196 93
60 19 94 35 91 42 -5 16 -153 117 -243 168 -83 45 -136 54 -59 9z"/>
<path d="M970 326 c0 -10 6 -13 15 -10 8 4 15 1 15 -5 0 -6 7 -11 15 -11 8 0
15 7 15 15 0 8 -6 15 -14 15 -8 0 -21 3 -30 6 -10 4 -16 1 -16 -10z"/>
<path d="M1047 292 c-23 -25 -21 -33 6 -27 21 6 24 3 24 -25 0 -24 -6 -35 -24
-43 -12 -5 -23 -15 -23 -22 0 -6 -16 -28 -37 -48 -20 -20 -34 -40 -31 -43 10
-10 58 27 73 56 30 58 139 125 220 137 25 3 48 10 51 15 8 12 -77 0 -130 -18
-48 -17 -57 -17 -50 -1 3 9 -5 13 -23 12 -17 0 -27 5 -25 13 3 18 -12 15 -31
-6z"/>
<path d="M600 84 c0 -8 5 -12 10 -9 6 3 10 10 10 16 0 5 -4 9 -10 9 -5 0 -10
-7 -10 -16z"/>
<path d="M710 81 c0 -6 5 -13 10 -16 6 -3 10 1 10 9 0 9 -4 16 -10 16 -5 0
-10 -4 -10 -9z"/>
<path d="M750 74 c0 -8 5 -12 10 -9 6 3 10 10 10 16 0 5 -4 9 -10 9 -5 0 -10
-7 -10 -16z"/>
<path d="M785 70 c3 -5 8 -10 11 -10 2 0 4 5 4 10 0 6 -5 10 -11 10 -5 0 -7
-4 -4 -10z"/>
<path d="M85 930 c3 -5 8 -10 11 -10 2 0 4 5 4 10 0 6 -5 10 -11 10 -5 0 -7
-4 -4 -10z"/>
<path d="M190 900 c13 -9 13 -10 0 -10 -14 0 37 -40 52 -40 16 0 -1 34 -23 46
-27 15 -52 19 -29 4z m40 -20 c8 -5 11 -10 5 -10 -5 0 -17 5 -25 10 -8 5 -10
10 -5 10 6 0 17 -5 25 -10z"/>
<path d="M180 798 c0 -52 9 -88 21 -88 5 0 6 12 2 28 -4 15 -7 44 -7 65 0 20
-4 37 -8 37 -5 0 -8 -19 -8 -42z"/>
<path d="M240 700 c0 -5 5 -10 10 -10 6 0 10 5 10 10 0 6 -4 10 -10 10 -5 0
-10 -4 -10 -10z"/>
<path d="M250 673 c1 -18 18 -35 24 -24 4 6 2 11 -4 11 -6 0 -8 5 -5 10 3 6 1
10 -4 10 -6 0 -11 -3 -11 -7z"/>
<path d="M640 403 c0 -15 19 -37 26 -31 3 4 -1 14 -10 23 -9 9 -16 13 -16 8z"/>
<path d="M769 264 c-11 -14 -9 -15 16 -12 16 1 30 9 33 16 6 18 -33 15 -49 -4z"/>
<path d="M730 260 c0 -5 5 -10 10 -10 6 0 10 5 10 10 0 6 -4 10 -10 10 -5 0
-10 -4 -10 -10z"/>
</g>
</svg>
